# xmcd
#
# Track frame offsets:
#	150
#	16215
#	33439
#	57745
#	72998
#	100899
#	119858
#	139243
#	167963
#	182808
#	203570
#	226077
#	248936
#	263856
#	286803
#	306087
#	329856
#	349476
#
# Disc length: 4779 seconds
#
# Revision: 0
# Processed by: cddbd v1.4PL0 Copyright (c) Steve Scherf et al.
# Submitted via: dBpowerAMP V4.0
#
DISCID=1f12a912
DTITLE=Mark Knopfler - Greatest Hits II
DYEAR=2002
DGENRE=Blues
TTITLE0=Cannibals
TTITLE1=Quality Shoe
TTITLE2=Silwertown Blues
TTITLE3=Yakety Axe (with Chat Atkins)
TTITLE4=Speedway At Nazareth
TTITLE5=The Ragpicker's Dream
TTITLE6=I'm The Fool
TTITLE7=There'll Be Some Changes Made (with Chat Atkins)
TTITLE8=The Last Laugh
TTITLE9=Wag The Dog
TTITLE10=Done With Bonaparte
TTITLE11=Baloney Again
TTITLE12=The Next Time In My Town (with Chat Atkins)
TTITLE13=Je Suis De'Sole'
TTITLE14=Ole Pigweed
TTITLE15=El Macho
TTITLE16=Darling Pretty
TTITLE17=The Road
EXTD=
EXTT0=
EXTT1=
EXTT2=
EXTT3=
EXTT4=
EXTT5=
EXTT6=
EXTT7=
EXTT8=
EXTT9=
EXTT10=
EXTT11=
EXTT12=
EXTT13=
EXTT14=
EXTT15=
EXTT16=
EXTT17=
PLAYORDER=
